# Blender v3.0.1 OBJ File: 'spaceparts.blend'
# www.blender.org
mtllib control_seat.mtl
o Cube.009_Cube.001
v -0.603710 -1.426554 0.288932
v -0.745319 0.151500 0.288932
v -0.603710 -1.426554 -0.288932
v -0.745319 0.151500 -0.288932
v 0.066170 -1.426554 0.288932
v 0.556296 -1.332507 0.288932
v 0.066170 -1.426554 -0.288932
v 0.556296 -1.332507 -0.288932
v -0.745319 0.151500 0.000000
v -0.017623 -1.011310 -0.288932
v 0.556296 -1.332507 0.000000
v -0.017623 -1.011310 0.288932
v -0.107053 -1.103020 0.000000
v -0.745319 0.151500 -0.144466
v 0.344347 -0.950964 -0.332529
v 0.556296 -1.332507 0.144466
v -0.562863 0.156823 0.288932
v -0.745319 0.151500 0.144466
v -0.562863 0.156823 -0.288932
v 0.556296 -1.332507 -0.144466
v 0.344347 -0.950964 0.332529
v -0.107053 -1.103020 0.144466
v -0.107053 -1.103020 -0.144466
v 0.385351 -1.016196 0.000000
v -0.662228 0.198056 0.000000
v -0.662228 0.198056 -0.144466
v 0.385351 -1.016196 -0.144466
v 0.385351 -1.016196 0.144466
v -0.662228 0.198056 0.144466
v -0.344447 -0.612979 -0.288932
v -0.472874 -0.468040 0.000000
v -0.344447 -0.612979 0.288932
v -0.472874 -0.468040 -0.144466
v -0.472874 -0.468040 0.144466
v -0.142053 -0.888492 -0.288932
v -0.289964 -0.785530 0.000000
v -0.289964 -0.785530 -0.144466
v -0.289964 -0.785530 0.144466
v -0.142053 -0.888492 0.288932
v -0.764197 -0.767607 -0.288932
v -0.746832 -0.866088 -0.288932
v -0.764197 -0.767607 0.288932
v -0.746832 -0.866088 0.288932
v -0.142053 -0.888492 0.460118
v -0.344447 -0.612979 0.460118
v -0.344447 -0.612979 -0.460118
v -0.142053 -0.888492 -0.460118
v -0.485329 -0.767607 -0.460118
v -0.467964 -0.866088 -0.460118
v -0.467964 -0.866088 0.460118
v -0.485329 -0.767607 0.460118
v 0.063075 -0.624721 0.387742
v 0.045260 -0.523685 0.387742
v 0.045260 -0.523685 -0.424208
v 0.063075 -0.624721 -0.424208
v 0.063075 -0.624721 0.628272
v 0.045260 -0.523685 0.628272
v 0.045260 -0.523685 -0.664738
v 0.063075 -0.624721 -0.664738
v 0.457495 -0.485807 0.387742
v 0.451542 -0.452046 0.387742
v 0.451542 -0.452046 -0.424208
v 0.457495 -0.485807 -0.424208
v 0.300800 -0.582804 0.628272
v 0.282984 -0.481767 0.628272
v 0.282984 -0.481767 -0.664738
v 0.300800 -0.582804 -0.664738
v 0.455724 -0.475763 0.387742
v 0.455724 -0.475763 -0.424208
v 0.291892 -0.532286 0.628272
v 0.291892 -0.532286 -0.664738
v 0.457495 -0.485807 -0.544473
v 0.451542 -0.452046 -0.544473
v 0.451542 -0.452046 0.508007
v 0.457495 -0.485807 0.508007
v 0.455724 -0.475763 0.508007
v 0.455724 -0.475763 -0.544473
v 0.026210 -1.125578 -0.288932
v -0.517878 -1.125578 -0.288932
v -0.517878 -1.343893 -0.288932
v 0.026210 -1.343893 -0.288932
v 0.026210 -1.125578 -0.024255
v -0.517878 -1.125578 -0.024255
v -0.517878 -1.343893 -0.024255
v 0.026210 -1.343893 -0.024255
v -0.517878 -1.125578 0.288932
v 0.026210 -1.125578 0.288932
v 0.026210 -1.343893 0.288932
v -0.517878 -1.343893 0.288932
v -0.517878 -1.125578 0.089284
v 0.026210 -1.125578 0.089284
v 0.026210 -1.343893 0.089284
v -0.517878 -1.343893 0.089284
vt 0.375000 0.000000
vt 0.437500 0.000000
vt 0.437500 0.250000
vt 0.375000 0.250000
vt 0.402746 0.309956
vt 0.421579 0.449646
vt 0.375000 0.500000
vt 0.625000 0.500000
vt 0.625000 0.562500
vt 0.625000 0.625000
vt 0.625000 0.687500
vt 0.625000 0.750000
vt 0.375000 0.750000
vt 0.436782 0.799050
vt 0.395000 0.969258
vt 0.375000 1.000000
vt 0.125000 0.500000
vt 0.125000 0.750000
vt 0.812500 0.687500
vt 0.875000 0.687500
vt 0.875000 0.750000
vt 0.812500 0.750000
vt 0.687500 0.687500
vt 0.750000 0.687500
vt 0.750000 0.750000
vt 0.687500 0.750000
vt 0.687500 0.562500
vt 0.750000 0.562500
vt 0.750000 0.625000
vt 0.687500 0.625000
vt 0.812500 0.562500
vt 0.875000 0.562500
vt 0.875000 0.625000
vt 0.812500 0.625000
vt 0.781250 0.562500
vt 0.781250 0.625000
vt 0.781250 0.500000
vt 0.812500 0.500000
vt 0.875000 0.500000
vt 0.687500 0.500000
vt 0.750000 0.500000
vt 0.781250 0.687500
vt 0.781250 0.750000
vt 0.765625 0.625000
vt 0.765625 0.687500
vt 0.765625 0.750000
vt 0.765625 0.500000
vt 0.765625 0.562500
vt 0.500000 0.000000
vt 0.437500 0.000000
vt 0.500000 0.000000
vt 0.625000 0.343750
vt 0.500000 0.250000
vt 0.625000 0.250000
vt 0.625000 0.312500
vt 0.625000 0.359375
vt 0.625000 0.343750
vt 0.625000 0.343750
vt 0.625000 0.359375
vt 0.500000 1.000000
vt 0.625000 0.906250
vt 0.625000 0.937500
vt 0.625000 1.000000
vt 0.437500 0.250000
vt 0.500000 0.250000
vt 0.437500 1.000000
vt 0.625000 0.890625
vt 0.625000 0.906250
vt 0.500000 1.000000
vt 0.625000 0.359375
vt 0.437500 1.000000
vt 0.625000 0.890625
vt 0.625000 0.906250
vt 0.625000 0.906250
vt 0.625000 0.343750
vt 0.625000 0.343750
vt 0.625000 0.343750
vt 0.625000 0.343750
vt 0.625000 0.890625
vt 0.625000 0.890625
vt 0.625000 0.890625
vt 0.625000 0.890625
vt 0.625000 0.890625
vt 0.625000 0.359375
vt 0.781250 0.750000
vt 0.765625 0.750000
vt 0.765625 0.500000
vt 0.781250 0.500000
vt 0.773438 0.500000
vt 0.765625 0.500000
vt 0.765625 0.500000
vt 0.773438 0.500000
vt 0.773438 0.750000
vt 0.781250 0.750000
vt 0.781250 0.750000
vt 0.773438 0.750000
vt 0.625000 0.351562
vt 0.625000 0.359375
vt 0.765625 0.500000
vt 0.773438 0.500000
vt 0.781250 0.500000
vt 0.625000 0.906250
vt 0.625000 0.906250
vt 0.625000 0.906250
vt 0.625000 0.359375
vt 0.625000 0.359375
vt 0.625000 0.898438
vt 0.781250 0.750000
vt 0.773438 0.750000
vt 0.765625 0.750000
vt 0.765625 0.750000
vt 0.765625 0.750000
vt 0.781250 0.500000
vt 0.781250 0.500000
vt 0.625000 0.000000
vt 0.625000 0.062500
vt 0.625000 0.125000
vt 0.625000 0.187500
vt 0.459626 0.309617
vt 0.536910 0.402346
vt 0.421579 0.449646
vt 0.402746 0.309956
vt 0.625000 0.437500
vt 0.536910 0.402346
vt 0.625000 0.375000
vt 0.459626 0.309617
vt 0.450181 0.950212
vt 0.395000 0.969258
vt 0.436782 0.799050
vt 0.549983 0.844867
vt 0.450181 0.950212
vt 0.549983 0.844867
vt 0.625000 0.875000
vt 0.625000 0.812500
vn -0.9689 -0.2474 0.0000
vn 0.0000 0.0000 -1.0000
vn 0.1884 -0.9821 0.0000
vn 0.0000 0.0000 1.0000
vn 0.0000 -1.0000 0.0000
vn -0.1878 0.9613 0.2018
vn -0.1349 0.9035 -0.4068
vn -0.1736 0.9848 0.0000
vn -0.4888 0.8724 0.0000
vn 0.9619 0.2734 0.0000
vn 0.8313 0.2361 0.5033
vn -0.1878 0.9613 -0.2018
vn 0.8797 0.4754 0.0000
vn 0.8770 0.4803 -0.0139
vn -0.1349 0.9035 0.4068
vn 0.8770 0.4803 0.0139
vn 0.8313 0.2361 -0.5033
vn 0.8665 0.4992 0.0000
vn 0.7952 0.5167 -0.3172
vn 0.7952 0.5167 0.3172
vn 0.6871 0.4796 0.5457
vn 0.6871 0.4796 -0.5457
vn -0.5209 -0.0919 0.8486
vn -0.4395 -0.2571 -0.8607
vn -0.4495 0.8148 0.3661
vn -0.0481 -0.9981 -0.0391
vn -0.5209 -0.0919 -0.8486
vn -0.0481 -0.9981 0.0391
vn -0.2233 0.9747 0.0000
vn -0.4495 0.8148 -0.3661
vn 0.3059 -0.9477 -0.0914
vn 0.7894 -0.6139 0.0000
vn -0.3774 -0.2207 0.8993
vn 0.2371 0.1387 -0.9615
vn 0.3144 0.1839 0.9313
vn 0.5662 0.0998 -0.8182
vn 0.5662 0.0998 0.8182
vn 0.3059 -0.9477 0.0914
vn 0.9848 0.1736 0.0000
vn -0.9998 0.0205 -0.0000
vn -0.1124 -0.0431 -0.9927
vn -1.0000 0.0000 0.0000
vn 1.0000 0.0000 0.0000
vn 0.0000 1.0000 0.0000
vn -0.1124 -0.0431 0.9927
vn -0.0563 -0.1441 0.9880
vn -0.0563 -0.1441 -0.9880
vn -0.9848 -0.1736 0.0000
usemtl None
s off
f 1/1/1 43/2/1 41/3/1 3/4/1
f 3/4/2 80/5/2 81/6/2 7/7/2
f 7/7/3 8/8/3 20/9/3 11/10/3 16/11/3 6/12/3 5/13/3
f 5/13/4 88/14/4 89/15/4 1/16/4
f 3/17/5 7/7/5 5/13/5 1/18/5
f 29/19/6 18/20/6 2/21/6 17/22/6
f 28/23/7 22/24/7 12/25/7 21/26/7
f 27/27/8 23/28/8 13/29/8 24/30/8
f 26/31/9 14/32/9 9/33/9 25/34/9
f 33/35/10 26/31/10 25/34/10 31/36/10
f 30/37/11 19/38/11 26/31/11 33/35/11
f 19/38/12 4/39/12 14/32/12 26/31/12
f 20/9/13 27/27/13 24/30/13 11/10/13
f 8/8/14 15/40/14 27/27/14 20/9/14
f 15/40/15 10/41/15 23/28/15 27/27/15
f 16/11/16 28/23/16 21/26/16 6/12/16
f 11/10/13 24/30/13 28/23/13 16/11/13
f 24/30/8 13/29/8 22/24/8 28/23/8
f 34/42/17 29/19/17 17/22/17 32/43/17
f 31/36/10 25/34/10 29/19/10 34/42/10
f 25/34/9 9/33/9 18/20/9 29/19/9
f 36/44/18 31/36/18 34/42/18 38/45/18
f 38/45/19 34/42/19 32/43/19 39/46/19
f 35/47/20 30/37/20 33/35/20 37/48/20
f 37/48/18 33/35/18 31/36/18 36/44/18
f 23/28/18 37/48/18 36/44/18 13/29/18
f 10/41/21 35/47/21 37/48/21 23/28/21
f 22/24/22 38/45/22 39/46/22 12/25/22
f 13/29/18 36/44/18 38/45/18 22/24/18
f 42/49/23 43/2/23 50/50/23 51/51/23
f 30/52/2 40/53/2 4/54/2 19/55/2
f 47/56/24 46/57/24 58/58/24 59/59/24
f 42/60/4 32/61/4 17/62/4 2/63/4
f 47/56/2 49/64/2 48/65/2 46/57/2
f 50/66/4 44/67/4 45/68/4 51/69/4
f 32/61/25 42/60/25 51/69/25 45/68/25
f 35/70/26 41/3/26 49/64/26 47/56/26
f 41/3/27 40/53/27 48/65/27 49/64/27
f 43/71/28 39/72/28 44/67/28 50/66/28
f 32/61/29 45/68/29 57/73/29 53/74/29
f 40/53/30 30/52/30 46/57/30 48/65/30
f 58/58/8 54/75/8 62/76/8 73/77/8 66/78/8
f 56/79/31 52/80/31 60/81/31 75/82/31 64/83/31
f 35/70/32 47/56/32 59/59/32 55/84/32
f 44/67/32 39/72/32 52/80/32 56/79/32
f 45/68/33 44/67/33 56/79/33 57/73/33
f 46/57/29 30/52/29 54/75/29 58/58/29
f 39/46/34 32/43/34 53/85/34 52/86/34
f 30/37/35 35/47/35 55/87/35 54/88/35
f 77/89/36 72/90/36 67/91/36 71/92/36
f 76/93/37 74/94/37 65/95/37 70/96/37
f 59/59/2 58/58/2 66/78/2 71/97/2 67/98/2
f 54/88/4 55/87/4 63/99/4 69/100/4 62/101/4
f 53/74/8 57/73/8 65/102/8 74/103/8 61/104/8
f 55/84/38 59/59/38 67/98/38 72/105/38 63/106/38
f 57/73/4 56/79/4 64/83/4 70/107/4 65/102/4
f 52/86/2 53/85/2 61/108/2 68/109/2 60/110/2
f 75/111/37 76/93/37 70/96/37 64/112/37
f 60/110/39 68/109/39 76/93/39 75/111/39
f 68/109/39 61/108/39 74/94/39 76/93/39
f 73/113/36 77/89/36 71/92/36 66/114/36
f 62/101/39 69/100/39 77/89/39 73/113/39
f 69/100/39 63/99/39 72/90/39 77/89/39
f 40/53/40 42/49/40 2/115/40 18/116/40 9/117/40 14/118/40 4/54/40
f 83/119/2 82/120/2 85/121/2 84/122/2
f 15/123/41 78/124/41 10/125/41
f 78/124/42 81/6/42 85/121/42 82/120/42
f 80/5/43 79/126/43 83/119/43 84/122/43
f 81/6/44 80/5/44 84/122/44 85/121/44
f 79/126/5 78/124/5 82/120/5 83/119/5
f 90/127/4 93/128/4 92/129/4 91/130/4
f 1/16/4 89/15/4 86/131/4 43/71/4
f 89/15/44 88/14/44 92/129/44 93/128/44
f 87/132/5 86/131/5 90/127/5 91/130/5
f 86/131/43 89/15/43 93/128/43 90/127/43
f 88/14/42 87/132/42 91/130/42 92/129/42
f 12/133/45 87/132/45 21/134/45
f 10/125/2 78/124/2 41/3/2 35/70/2
f 87/132/46 6/12/46 21/134/46
f 8/8/47 78/124/47 15/123/47
f 41/3/48 43/2/48 42/49/48 40/53/48
f 41/3/2 79/126/2 80/5/2 3/4/2
f 43/71/4 87/132/4 12/133/4 39/72/4
f 43/71/4 86/131/4 87/132/4
f 79/126/2 41/3/2 78/124/2
f 7/7/2 81/6/2 8/8/2
f 88/14/4 6/12/4 87/132/4
f 6/12/4 88/14/4 5/13/4
f 8/8/2 81/6/2 78/124/2
